<?xml version="1.0"?>
<svg width="100" height="125" xmlns="http://www.w3.org/2000/svg" xmlns:svg="http://www.w3.org/2000/svg" enable-background="new 0 0 100 100" version="1.1" xml:space="preserve">
 <g class="layer">
  <title>Layer 1</title>
  <g id="svg_1">
   <circle cx="43.2" cy="36.4" fill="#7f7f7f" id="svg_2" r="14.4"/>
   <path d="m64.3,59.8c-11.7,0 -21.1,9.5 -21.1,21.1s9.5,21.1 21.1,21.1s21.1,-9.5 21.1,-21.1s-9.4,-21.1 -21.1,-21.1zm-15.1,12.1c0.7,-1.2 1.6,-2.4 2.7,-3.4c4.1,-4.1 9.8,-5.9 15.7,-4.9c2.3,0.4 4.5,1.3 6.4,2.6c2.3,1.5 4.1,3.5 5.4,5.7c0.4,0.7 0.2,1.7 -0.6,2.1l-0.7,0.3c-3.5,1.6 -7.5,1.6 -11,0.1c-0.8,-0.4 -1.8,-0.6 -2.8,-0.6c-1,0 -1.9,0.2 -2.8,0.6c-3.5,1.5 -7.5,1.5 -11,-0.1l-0.7,-0.3c-0.7,-0.4 -1,-1.4 -0.6,-2.1zm12.5,23l-0.2,1.7c-0.1,0.9 -1,1.5 -1.8,1.3c-2.9,-0.8 -5.7,-2.3 -7.9,-4.5c-3.3,-3.3 -5.2,-7.7 -5.2,-12.4c0,0 0,0 0,0c0,-1 1,-1.7 1.9,-1.4l2.9,0.8c2.9,0.8 5.5,2.5 7.3,4.9c0,0 0.1,0.1 0.1,0.1c2.1,2.6 3.2,6 2.9,9.5zm2.8,-10.5c-2.1,0.1 -3.8,-1.6 -3.7,-3.7c0.1,-1.8 1.5,-3.2 3.3,-3.3c2.1,-0.1 3.8,1.6 3.7,3.7c0,1.8 -1.5,3.2 -3.3,3.3zm12.2,8.9c-2.2,2.2 -4.9,3.8 -7.8,4.5c-0.9,0.2 -1.7,-0.4 -1.8,-1.3l-0.1,-1.7c-0.3,-3.5 0.8,-6.9 2.9,-9.6c0,0 0.1,-0.1 0.1,-0.1c1.8,-2.4 4.4,-4.1 7.3,-4.9l2.8,-0.8c0.9,-0.2 1.8,0.4 1.8,1.4c0,0 0,0 0,0c0,4.8 -1.8,9.2 -5.2,12.5z" fill="#7f7f7f" id="svg_3"/>
   <path d="m63.9,58.4c-2.4,-3.9 -5.8,-7.1 -9.9,-9.1c-2.9,2.5 -6.7,4 -10.8,4c-4.1,0 -7.9,-1.5 -10.8,-3.9c-7.9,4.1 -13.4,12.3 -13.8,22c0,0 0,8.1 0,8.2c0,3.3 10.6,6 23.7,6.1c-0.3,-1.5 -0.5,-3.1 -0.5,-4.7c0,-12.4 9.9,-22.4 22.1,-22.6z" fill="#7f7f7f" id="svg_4"/>
  </g>
 </g>
</svg>